<svg width="26" height="27" viewBox="0 0 26 27" fill="none" xmlns="http://www.w3.org/2000/svg">
<g clip-path="url(#clip0_31_25)">
<path d="M22.9531 0.00415039H10.9688C9.2887 0.00415039 7.92188 1.37098 7.92188 3.05103V6.0979H9.95312V3.05103C9.95312 2.49101 10.4087 2.0354 10.9688 2.0354H22.9531C23.5131 2.0354 23.9688 2.49101 23.9688 3.05103V14.8323C23.9688 15.3923 23.5131 15.8479 22.9531 15.8479H20.1094V17.8792H22.9531C24.6332 17.8792 26 16.5123 26 14.8323V3.05103C26 1.37098 24.6332 0.00415039 22.9531 0.00415039ZM15.0312 8.12915H3.04688C1.36683 8.12915 0 9.49598 0 11.176V22.9573C0 24.6373 1.36683 26.0042 3.04688 26.0042H15.0312C16.7113 26.0042 18.0781 24.6373 18.0781 22.9573V11.176C18.0781 9.49598 16.7113 8.12915 15.0312 8.12915ZM16.0469 22.9573C16.0469 23.5173 15.5913 23.9729 15.0312 23.9729H3.04688C2.48686 23.9729 2.03125 23.5173 2.03125 22.9573V11.176C2.03125 10.616 2.48686 10.1604 3.04688 10.1604H15.0312C15.5913 10.1604 16.0469 10.616 16.0469 11.176V22.9573Z" fill="black"/>
</g>
<defs>
<clipPath id="clip0_31_25">
<rect width="26" height="26" fill="white" transform="translate(0 0.00415039)"/>
</clipPath>
</defs>
</svg>
