<svg width="54" height="54" viewBox="0 0 54 54" fill="none" xmlns="http://www.w3.org/2000/svg">
<circle cx="26.8253" cy="27.3364" r="25.5031" stroke="black" stroke-width="2"/>
<path d="M22.3787 21.539H24.1857C24.1857 19.6717 24.4516 17.5156 22.7315 15.7956C22.1913 15.2554 21.6802 14.8277 21.2292 14.4503C20.0367 13.4522 19.5528 13.004 19.5528 11.917H17.7458V25.2527C17.0993 24.8191 16.3223 24.5657 15.4871 24.5657C13.2453 24.5657 11.4215 26.3895 11.4215 28.6313C11.4215 30.8732 13.2453 32.697 15.4871 32.697C17.7427 32.697 19.591 30.8471 19.5508 28.556H19.5528V15.3973C20.1224 15.8949 20.762 16.3815 21.4538 17.0732C22.6 18.2195 22.3787 19.724 22.3787 21.539Z" fill="black"/>
<path d="M26.7492 21.2338V35.3115C26.1027 34.8779 25.3257 34.6245 24.4905 34.6245C22.2487 34.6245 20.4248 36.4483 20.4248 38.6901C20.4248 40.9319 22.2487 42.7557 24.4905 42.7557C26.7323 42.7557 28.5561 40.9319 28.5561 38.6901V26.2883C31.5508 25.6952 37.4471 24.5276 40.4218 23.9384V31.6975C39.7753 31.2639 38.9983 31.0105 38.1631 31.0105C35.9213 31.0105 34.0974 32.8343 34.0974 35.0761C34.0974 37.318 35.9213 39.1418 38.1631 39.1418C40.4049 39.1418 42.2287 37.318 42.2287 35.0761C42.2287 34.0801 42.2287 18.9245 42.2287 18.1651L26.7492 21.2338Z" fill="black"/>
</svg>
